<?xml version="1.0" encoding="UTF-8" standalone="no"?>
<svg
   xmlns:dc="http://purl.org/dc/elements/1.1/"
   xmlns:cc="http://creativecommons.org/ns#"
   xmlns:rdf="http://www.w3.org/1999/02/22-rdf-syntax-ns#"
   xmlns:svg="http://www.w3.org/2000/svg"
   xmlns="http://www.w3.org/2000/svg"
   xmlns:xlink="http://www.w3.org/1999/xlink"
   version="1.1"
   id="svg-drit-logo"
   width="267.88501"
   height="285.48773"
   viewBox="0 0 267.88501 285.48772">
  <metadata
     id="metadata8">
    <rdf:RDF>
      <cc:Work
         rdf:about="">
        <dc:format>image/svg+xml</dc:format>
        <dc:type
           rdf:resource="http://purl.org/dc/dcmitype/StillImage" />
        <dc:title></dc:title>
      </cc:Work>
    </rdf:RDF>
  </metadata>
  <defs
     id="defs6">
    <linearGradient
       id="purple_black">
      <stop
         style="stop-color:#660066;stop-opacity:1"
         offset="0"
         id="purple" />
      <stop
         style="stop-color:#000000;stop-opacity:1"
         offset="1"
         id="black" />
    </linearGradient>
    <linearGradient
       xlink:href="#purple_black"
       id="linearGradient880"
       x1="60.818562"
       y1="120.11902"
       x2="196"
       y2="8.5e-05"
       gradientUnits="userSpaceOnUse"
       gradientTransform="matrix(-0.5,0.8660254,0.8660254,0.5,61.466404,-36.211959)" />
    <linearGradient
       xlink:href="#purple_black"
       id="linearGradient846"
       x1="93.967224"
       y1="101.48124"
       x2="47.730923"
       y2="181.56487"
       gradientUnits="userSpaceOnUse"
       gradientTransform="translate(41.0522)" />
  </defs>
  <path
     style="fill:#01a49b"
     d="m 71.37166,168.03555 c 5.60838,6.80559 30.71969,26.50626 63.22189,27.17347 33.25649,0.6827 55.27712,-12.63316 65.54642,-21.84155 0.82629,-0.74093 17.62082,-15.98905 1.21136,0.60272 L 173.43301,202.19867 139.05,236.75858 70.90334,168.73298 C 64.47782,162.31887 58.36185,153.29332 58.36185,153.29332 v 0 c 4.74227,7.11967 11.8777,13.77302 13.00982,14.74226 l 1e-5,-2e-5 z"
     id="organic" />
  <path
     id="technology"
     fill="fill:url(#linearGradient880);"
     style="fill:url(#linearGradient846);fill-opacity:1"
     d="m 54.51438,47.79916 c 22.71369,-39.3072902 83.52893,-63.61937 131.54161,-35.89923 41.09781,23.72783 69.13515,81.41998 37.57046,135.06734 -17.60707,29.92499 -49.22536,43.99003 -64.94595,46.66742 -4.05254,0.69019 -18.34946,1.86441 -22.55466,1.83023 -1.29638,-0.0691 -1.73146,-1.17228 -1.05078,-2.53468 l 17.59566,-30.80155 c 14.70718,-4.54696 32.02922,-11.35652 44.21209,-32.45787 16.59695,-28.74677 8.94725,-70.69297 -26.5429,-90.81837 -35.49015,-20.12539 -74.22486,-1.01 -89.16307,24.86374 -14.93821,25.87374 -12.18482,58.33037 10.82598,80.25652 l 8.2552,-14.50639 c 2.19656,-3.80456 2.43959,-4.42867 -0.17195,-8.95199 -8.6085,-12.10795 -9.55822,-32.00325 -1.14045,-47.18932 6.96335,-13.36444 23.45132,-21.26627 34.47982,-21.76464 5.46889,-0.24713 4.83939,0.96029 3.75023,2.74024 l -16.18602,28.07096 9.33736,16.27478 c 1.70684,2.975 5.06816,5.90919 8.49642,5.804 l 22.04655,-1.96079 15.26547,-25.97159 c 1.32622,-1.88957 2.17779,0.0412 2.9629,2.23059 0.78512,2.18941 10.49663,16.82832 -2.46605,39.28035 -11.89372,20.60053 -31.66869,23.37411 -37.85847,23.37411 -4.84835,-0.26714 -6.15437,2.51428 -8.75702,7.02219 l -23.99319,41.44023 c -5.7228,-2.17307 -13.32294,-5.80637 -17.44416,-8.29306 C 66.75971,168.23236 50.10968,146.66419 43.72744,121.04355 37.34519,95.4229 42.9516,67.82646 54.51438,47.79916 Z" />
  <text
     xml:space="preserve"
     style="font-size:96px;line-height:0;font-family:sans-serif;letter-spacing:1.27px;fill:#300133;fill-opacity:1"
     x="-8.8125"
     y="285.48773"
     id="text886"><tspan
       id="tspan884"
       x="-8.8125"
       y="285.48773"
       style="font-style:normal;font-variant:normal;font-weight:bold;font-stretch:normal;font-size:96px;line-height:0.35;font-family:sans-serif;-inkscape-font-specification:'sans-serif Bold';fill:#300133;fill-opacity:1"
       dx="0 0 0 7.430007">Dr<tspan
   style="font-size:96px;line-height:0.35;fill:#f58283;fill-opacity:0.98"
   id="tspan882">·</tspan>IT</tspan></text>
</svg>
